<svg version="1.1" viewBox="0.0 0.0 960.0 540.0" fill="none" stroke="none" stroke-linecap="square" stroke-miterlimit="10" xmlns:xlink="http://www.w3.org/1999/xlink" xmlns="http://www.w3.org/2000/svg"><clipPath id="g3ef6d3ef901_0_3.0"><path d="m0 0l960.0 0l0 540.0l-960.0 0l0 -540.0z" clip-rule="nonzero"/></clipPath><g clip-path="url(#g3ef6d3ef901_0_3.0)"><path fill="#0c1324" d="m0 0l960.0 0l0 540.0l-960.0 0z" fill-rule="evenodd"/><path fill="#ffffff" d="m408.92493 73.06706l19.600006 -25.2l29.399994 -11.550003l18.899994 -2.7999992l14.700012 0.70000076l23.100006 5.25l21.0 13.650002l13.299988 16.8l-30.799988 -14.700001l-40.950012 -5.25l-42.350006 8.049999z" fill-rule="evenodd"/><path stroke="#0c1324" stroke-width="1.0" stroke-linejoin="round" stroke-linecap="butt" d="m408.92493 73.06706l19.600006 -25.2l29.399994 -11.550003l18.899994 -2.7999992l14.700012 0.70000076l23.100006 5.25l21.0 13.650002l13.299988 16.8l-30.799988 -14.700001l-40.950012 -5.25l-42.350006 8.049999z" fill-rule="evenodd"/><path fill="#ffffff" d="m409.27493 73.067085l-16.450012 16.450005l-17.5 60.550003l0.7000122 76.29999l-2.100006 42.000015l19.950012 66.149994l29.75 68.94998l55.649994 92.400024l7.700012 4.899994l-0.7000122 -17.850006l-50.399994 -88.899994l-29.050018 -84.70001l-15.75 -91.7l-3.8499756 -54.59999l-1.4000244 -5.25l-3.149994 73.149994l8.75 65.100006l11.200012 56.69998l1.3999939 5.25l-23.799988 -88.54999l-1.0500183 -113.399994l17.149994 -63.0z" fill-rule="evenodd"/><path stroke="#0c1324" stroke-width="1.0" stroke-linejoin="round" stroke-linecap="butt" d="m409.27493 73.067085l-16.450012 16.450005l-17.5 60.550003l0.7000122 76.29999l-2.100006 42.000015l19.950012 66.149994l29.75 68.94998l55.649994 92.400024l7.700012 4.899994l-0.7000122 -17.850006l-50.399994 -88.899994l-29.050018 -84.70001l-15.75 -91.7l-3.8499756 -54.59999l-1.4000244 -5.25l-3.149994 73.149994l8.75 65.100006l11.200012 56.69998l1.3999939 5.25l-23.799988 -88.54999l-1.0500183 -113.399994l17.149994 -63.0z" fill-rule="evenodd"/><path fill="#ffffff" d="m385.8249 157.41705l12.600006 -24.149994l18.549988 -14.349998l18.200012 -10.150002l35.349976 -5.25l25.200012 3.8499985l8.75 5.25l-15.399994 2.100006l-45.149994 1.0499954l-19.950012 8.050003l-19.25 9.800003l-10.5 19.59999l4.200012 7.350006z" fill-rule="evenodd"/><path stroke="#0c1324" stroke-width="1.0" stroke-linejoin="round" stroke-linecap="butt" d="m385.8249 157.41705l12.600006 -24.149994l18.549988 -14.349998l18.200012 -10.150002l35.349976 -5.25l25.200012 3.8499985l8.75 5.25l-15.399994 2.100006l-45.149994 1.0499954l-19.950012 8.050003l-19.25 9.800003l-10.5 19.59999l4.200012 7.350006z" fill-rule="evenodd"/><path fill="#ffffff" d="m398.425 159.86708l8.399994 45.850006l22.399994 108.84999l26.25 94.149994l31.150024 76.30002l-9.100006 -91.0l-14.700012 -10.5l-18.899994 -39.55002z" fill-rule="evenodd"/><path stroke="#0c1324" stroke-width="1.0" stroke-linejoin="round" stroke-linecap="butt" d="m398.425 159.86708l8.399994 45.850006l22.399994 108.84999l26.25 94.149994l31.150024 76.30002l-9.100006 -91.0l-14.700012 -10.5l-18.899994 -39.55002z" fill-rule="evenodd"/><path fill="#ffffff" d="m398.07495 159.51706l17.850006 36.050003l39.200012 59.84999l9.799988 89.95001l4.200012 36.399994l9.100006 12.950012l-15.400024 -11.200012l-17.849976 -38.5l-10.150024 -56.700012z" fill-rule="evenodd"/><path stroke="#0c1324" stroke-width="1.0" stroke-linejoin="round" stroke-linecap="butt" d="m398.07495 159.51706l17.850006 36.050003l39.200012 59.84999l9.799988 89.95001l4.200012 36.399994l9.100006 12.950012l-15.400024 -11.200012l-17.849976 -38.5l-10.150024 -56.700012z" fill-rule="evenodd"/><path fill="#ffffff" d="m477.875 393.6671l-8.400024 -45.850006l-5.25 -89.25l-10.149994 -47.25l-8.75 -27.299988l-51.100006 -32.200012l48.650024 75.95001l12.25 27.299988l9.099976 45.149994l0 28.700012l5.600006 51.799988z" fill-rule="evenodd"/><path stroke="#0c1324" stroke-width="1.0" stroke-linejoin="round" stroke-linecap="butt" d="m477.875 393.6671l-8.400024 -45.850006l-5.25 -89.25l-10.149994 -47.25l-8.75 -27.299988l-51.100006 -32.200012l48.650024 75.95001l12.25 27.299988l9.099976 45.149994l0 28.700012l5.600006 51.799988z" fill-rule="evenodd"/><path fill="#ffffff" d="m304.85828 334.28375l84.69998 33.950012l-15.399994 -100.100006l-25.899994 45.149994z" fill-rule="evenodd"/><path stroke="#0c1324" stroke-width="1.0" stroke-linejoin="round" stroke-linecap="butt" d="m304.85828 334.28375l84.69998 33.950012l-15.399994 -100.100006l-25.899994 45.149994z" fill-rule="evenodd"/><path fill="#ffffff" d="m389.55823 367.53375l88.54999 127.04999l-55.649994 -93.099976l-48.30002 -133.35z" fill-rule="evenodd"/><path stroke="#0c1324" stroke-width="1.0" stroke-linejoin="round" stroke-linecap="butt" d="m389.55823 367.53375l88.54999 127.04999l-55.649994 -93.099976l-48.30002 -133.35z" fill-rule="evenodd"/><path fill="#ffffff" d="m305.20828 334.28378l29.050018 56.350006l49.0 58.44998l71.04999 42.700012l33.25 9.100006l2.8000183 5.5999756l-11.900024 -1.3999939l-27.299988 -11.549988l-35.0 -18.899994l-28.700012 -19.25l-24.149994 -22.75l-25.549988 -33.25l-21.700012 -34.30002l-8.75 -18.899994z" fill-rule="evenodd"/><path stroke="#0c1324" stroke-width="1.0" stroke-linejoin="round" stroke-linecap="butt" d="m305.20828 334.28378l29.050018 56.350006l49.0 58.44998l71.04999 42.700012l33.25 9.100006l2.8000183 5.5999756l-11.900024 -1.3999939l-27.299988 -11.549988l-35.0 -18.899994l-28.700012 -19.25l-24.149994 -22.75l-25.549988 -33.25l-21.700012 -34.30002l-8.75 -18.899994z" fill-rule="evenodd"/><path fill="#ffffff" d="m444.00668 115.804726l-36.01187 20.17736l-13.025787 16.345734l42.141937 3.320404z" fill-rule="evenodd"/><path stroke="#0c1324" stroke-width="1.0" stroke-linejoin="round" stroke-linecap="butt" d="m444.00668 115.804726l-36.01187 20.17736l-13.025787 16.345734l42.141937 3.320404z" fill-rule="evenodd"/><path fill="#ffffff" d="m496.1098 107.37669l30.393066 5.363449l31.159668 17.111877l20.687622 28.605377l-12.770386 6.8961945l-2.298462 -9.705383l-9.705383 -19.921509l-20.943481 -15.069298l-28.094604 -7.917259z" fill-rule="evenodd"/><path stroke="#0c1324" stroke-width="1.0" stroke-linejoin="round" stroke-linecap="butt" d="m496.1098 107.37669l30.393066 5.363449l31.159668 17.111877l20.687622 28.605377l-12.770386 6.8961945l-2.298462 -9.705383l-9.705383 -19.921509l-20.943481 -15.069298l-28.094604 -7.917259z" fill-rule="evenodd"/><path fill="#ffffff" d="m437.11096 155.39279l56.18924 2.043045l10.9823 -45.461876l-14.047302 2.8091888l-46.483887 0.7661438z" fill-rule="evenodd"/><path stroke="#0c1324" stroke-width="1.0" stroke-linejoin="round" stroke-linecap="butt" d="m437.11096 155.39279l56.18924 2.043045l10.9823 -45.461876l-14.047302 2.8091888l-46.483887 0.7661438z" fill-rule="evenodd"/><path fill="#ffffff" d="m493.5556 157.43594l69.72577 -1.5322876l-9.705383 -20.68811l-21.454285 -14.302696l-27.839203 -7.917259z" fill-rule="evenodd"/><path stroke="#0c1324" stroke-width="1.0" stroke-linejoin="round" stroke-linecap="butt" d="m493.5556 157.43594l69.72577 -1.5322876l-9.705383 -20.68811l-21.454285 -14.302696l-27.839203 -7.917259z" fill-rule="evenodd"/><path fill="#ffffff" d="m445.53943 184.25362l4.59729 -2.298874l-2.2988586 -24.51883l44.696167 1.5327301l-4.852661 31.669952l9.194611 -0.51075745l5.8742065 -29.882294l56.18921 -1.7881165l-37.289185 28.09462l-25.285004 5.619293l-14.302673 0z" fill-rule="evenodd"/><path stroke="#0c1324" stroke-width="1.0" stroke-linejoin="round" stroke-linecap="butt" d="m445.53943 184.25362l4.59729 -2.298874l-2.2988586 -24.51883l44.696167 1.5327301l-4.852661 31.669952l9.194611 -0.51075745l5.8742065 -29.882294l56.18921 -1.7881165l-37.289185 28.09462l-25.285004 5.619293l-14.302673 0z" fill-rule="evenodd"/><path fill="#ffffff" d="m486.65982 191.91548l1.276886 209.68813l8.428497 54.401123l-10.216614 28.605377l-8.68338 -90.66882l-6.385437 -63.595734l-5.3634644 -74.57849l-4.8526917 -50.059647z" fill-rule="evenodd"/><path stroke="#0c1324" stroke-width="1.0" stroke-linejoin="round" stroke-linecap="butt" d="m486.65982 191.91548l1.276886 209.68813l8.428497 54.401123l-10.216614 28.605377l-8.68338 -90.66882l-6.385437 -63.595734l-5.3634644 -74.57849l-4.8526917 -50.059647z" fill-rule="evenodd"/><path fill="#ffffff" d="m496.36523 455.7493l13.280701 -34.734955l-21.96457 -20.943054z" fill-rule="evenodd"/><path stroke="#0c1324" stroke-width="1.0" stroke-linejoin="round" stroke-linecap="butt" d="m496.36523 455.7493l13.280701 -34.734955l-21.96457 -20.943054z" fill-rule="evenodd"/><path fill="#ffffff" d="m487.7663 500.19012l49.293518 -111.86774l28.605347 -96.54303l7.151123 -61.297318l5.3634644 -72.280045l-10.471497 17.112335l-3.8311768 85.81613l-12.770447 67.93814l-17.87799 52.10269l-23.752686 39.587646l35.245728 -90.924194l7.6623535 -57.977386l15.57959 -97.30917l-5.6188354 93.223114l-9.960754 62.57419z" fill-rule="evenodd"/><path stroke="#0c1324" stroke-width="1.0" stroke-linejoin="round" stroke-linecap="butt" d="m487.7663 500.19012l49.293518 -111.86774l28.605347 -96.54303l7.151123 -61.297318l5.3634644 -72.280045l-10.471497 17.112335l-3.8311768 85.81613l-12.770447 67.93814l-17.87799 52.10269l-23.752686 39.587646l35.245728 -90.924194l7.6623535 -57.977386l15.57959 -97.30917l-5.6188354 93.223114l-9.960754 62.57419z" fill-rule="evenodd"/><path fill="#ffffff" d="m565.92065 165.09827l-44.696167 21.709183l46.739197 -12.003799z" fill-rule="evenodd"/><path stroke="#0c1324" stroke-width="1.0" stroke-linejoin="round" stroke-linecap="butt" d="m565.92065 165.09827l-44.696167 21.709183l46.739197 -12.003799z" fill-rule="evenodd"/><path fill="#ffffff" d="m555.95984 248.10478l-23.497314 75.08925l-10.471985 36.52307l18.900024 -36.778473z" fill-rule="evenodd"/><path stroke="#0c1324" stroke-width="1.0" stroke-linejoin="round" stroke-linecap="butt" d="m555.95984 248.10478l-23.497314 75.08925l-10.471985 36.52307l18.900024 -36.778473z" fill-rule="evenodd"/><path fill="#ffffff" d="m540.6352 205.45207l-15.324219 17.878479l-13.281189 23.497314l-6.8957214 22.986557l8.9392395 -24.008087l15.324219 -25.540817l10.2161255 -9.960754z" fill-rule="evenodd"/><path stroke="#0c1324" stroke-width="1.0" stroke-linejoin="round" stroke-linecap="butt" d="m540.6352 205.45207l-15.324219 17.878479l-13.281189 23.497314l-6.8957214 22.986557l8.9392395 -24.008087l15.324219 -25.540817l10.2161255 -9.960754z" fill-rule="evenodd"/><path fill="#ffffff" d="m504.87866 269.55896l-6.385437 140.72845l8.9392395 -77.13272z" fill-rule="evenodd"/><path stroke="#0c1324" stroke-width="1.0" stroke-linejoin="round" stroke-linecap="butt" d="m504.87866 269.55896l-6.385437 140.72845l8.9392395 -77.13272z" fill-rule="evenodd"/><path fill="#ffffff" d="m434.8975 58.083202l41.375763 -0.7661438l-41.375763 51.84731l-38.566162 -16.090355z" fill-rule="evenodd"/><path stroke="#0c1324" stroke-width="1.0" stroke-linejoin="round" stroke-linecap="butt" d="m434.8975 58.083202l41.375763 -0.7661438l-41.375763 51.84731l-38.566162 -16.090355z" fill-rule="evenodd"/><path fill="#ffffff" d="m538.42175 64.46866l6.1295776 16.345741l-18.133362 32.181168l30.903809 16.856499l21.965027 9.449997l-12.259644 -40.86457l-14.302734 -25.030052l-4.59729 -4.3419266z" fill-rule="evenodd"/><path stroke="#0c1324" stroke-width="1.0" stroke-linejoin="round" stroke-linecap="butt" d="m538.42175 64.46866l6.1295776 16.345741l-18.133362 32.181168l30.903809 16.856499l21.965027 9.449997l-12.259644 -40.86457l-14.302734 -25.030052l-4.59729 -4.3419266z" fill-rule="evenodd"/><path fill="#ffffff" d="m579.28674 139.30205l4.341919 33.45807l1.2769165 64.87309l0 66.91614l-14.047302 51.59195l3.8311768 -38.566162l5.108032 -44.95111l0 -97.56502z" fill-rule="evenodd"/><path stroke="#0c1324" stroke-width="1.0" stroke-linejoin="round" stroke-linecap="butt" d="m579.28674 139.30205l4.341919 33.45807l1.2769165 64.87309l0 66.91614l-14.047302 51.59195l3.8311768 -38.566162l5.108032 -44.95111l0 -97.56502z" fill-rule="evenodd"/><path fill="#ffffff" d="m571.11365 355.37512l-32.691895 85.30539l-51.081177 60.53116l28.860779 -9.705383l29.371948 -15.834961l-14.302673 -20.943512l11.748413 -15.834991z" fill-rule="evenodd"/><path stroke="#0c1324" stroke-width="1.0" stroke-linejoin="round" stroke-linecap="butt" d="m571.11365 355.37512l-32.691895 85.30539l-51.081177 60.53116l28.860779 -9.705383l29.371948 -15.834961l-14.302673 -20.943512l11.748413 -15.834991z" fill-rule="evenodd"/><path fill="#ffffff" d="m489.8948 506.31976l10.726898 -2.5542603l34.734985 -16.345734l31.925781 -14.813446l44.015015 -46.483856l34.394653 -42.90808l9.449951 -15.834961l-62.063416 56.700012l-62.063477 30.903778l14.813477 20.68814l-28.860779 15.57959z" fill-rule="evenodd"/><path stroke="#0c1324" stroke-width="1.0" stroke-linejoin="round" stroke-linecap="butt" d="m489.8948 506.31976l10.726898 -2.5542603l34.734985 -16.345734l31.925781 -14.813446l44.015015 -46.483856l34.394653 -42.90808l9.449951 -15.834961l-62.063416 56.700012l-62.063477 30.903778l14.813477 20.68814l-28.860779 15.57959z" fill-rule="evenodd"/><path fill="#ffffff" d="m584.90564 303.01712l13.281128 22.475769l56.44464 24.008087l0.5107422 17.367706l-55.167725 -29.882751l-12.003784 -10.982269z" fill-rule="evenodd"/><path stroke="#0c1324" stroke-width="1.0" stroke-linejoin="round" stroke-linecap="butt" d="m584.90564 303.01712l13.281128 22.475769l56.44464 24.008087l0.5107422 17.367706l-55.167725 -29.882751l-12.003784 -10.982269z" fill-rule="evenodd"/></g></svg>